<svg width="140" height="103" viewBox="0 0 140 103" fill="none" xmlns="http://www.w3.org/2000/svg">
<path d="M25.4373 63.3413C34.2527 62.0942 38.0368 57.407 37.8648 53.6229C37.7788 52.4189 36.6608 51.8598 36.5318 52.2469C35.1987 55.773 29.4795 60.0301 22.3412 59.7721C13.0529 59.4281 2.3025 51.8168 2.86152 38.5724C3.37754 26.0159 14.4289 17.3296 21.1802 16.0825C25.5234 15.2655 25.9104 18.3616 25.0933 20.4257C24.4483 21.9737 21.7822 24.9409 17.8691 25.9299C17.4821 26.0159 17.095 25.8009 17.181 26.1019C17.31 26.5319 17.7401 27.0479 18.4711 27.3059C23.1583 28.983 26.8134 24.9839 27.7594 20.8557C28.7485 16.2545 26.0394 12.0834 20.5352 13.0294C12.4939 14.4485 1.05546 23.6508 0.0664206 37.9703C-1.00862 54.2249 11.1178 65.3623 25.4373 63.3413Z" fill="black"/>
<path d="M39.8859 14.9645C39.7999 14.5345 39.8859 14.1475 40.0579 13.8465C40.1869 13.4595 38.8969 13.8035 38.4239 15.4376C37.5638 18.5337 40.2299 23.0918 46.6802 23.0488C48.5292 23.0488 50.2923 22.7908 51.9694 22.3178L50.4643 26.919C48.8303 27.134 47.4112 27.263 46.7232 27.263C46.2072 27.22 47.4542 29.2411 48.6582 29.4561L49.6903 29.5421C49.6043 29.5421 48.6582 32.7242 47.3252 37.4544C45.6051 39.6044 44.1431 40.8085 42.982 41.0235C41.305 41.3245 40.703 39.4754 41.692 36.1643L42.38 34.1002C42.552 33.6272 39.9289 32.6812 38.8539 33.8852L38.5959 34.1862C35.7578 39.3464 33.1777 42.7865 31.5436 43.0876C30.6836 43.2166 30.1676 42.7435 29.9956 41.6685C29.5655 39.3034 30.9846 35.9493 32.8337 33.2402C35.1558 29.8431 37.1338 28.295 38.2949 28.467C39.3269 28.682 39.3699 30.6601 38.8539 32.2512C38.7679 32.7242 42.681 32.2082 42.853 31.5631C43.3691 29.9291 42.251 26.2739 37.8649 26.79C35.5428 27.134 31.3286 29.3701 28.4905 34.5733C24.5344 41.8405 27.7595 45.5817 31.1566 44.9796C33.1777 44.6356 35.8008 42.2705 38.0369 39.3034C38.4239 41.8835 40.1439 43.4316 42.552 43.0016C43.8851 42.7865 45.1751 41.8835 46.4652 40.4645C46.0782 41.8405 45.6481 43.2596 45.2181 44.7646H45.2611C45.3041 44.7646 45.3471 44.7646 45.3901 44.7216C45.4331 44.7216 45.4761 44.7216 45.5191 44.6786C46.0352 44.5496 46.8522 44.3776 48.1852 44.2916C48.2712 44.2916 48.3572 44.2916 48.4432 44.2916C50.6793 37.0243 53.0444 29.4991 53.0444 29.4991C53.0444 29.4991 58.2046 28.596 61.3867 27.435C61.2147 27.951 61.0857 28.467 61.0857 28.983C61.0427 30.1011 62.0317 31.1331 63.4078 31.5201V31.5631C60.6987 33.0252 57.7316 35.2613 58.2046 37.7554C58.5916 39.9484 60.9137 43.5176 67.9229 42.1415C72.4811 41.2385 83.2745 35.4763 85.1666 27.005C86.8436 19.6947 82.1135 14.9215 76.2223 17.3726C75.7492 17.5876 75.4912 17.9316 75.4482 18.2327C75.3622 18.4477 75.6632 18.2756 75.8352 18.3617C79.9204 20.0387 82.0705 23.6939 80.8664 28.338C79.3614 34.3582 71.1911 40.2925 66.7619 40.7225C62.9348 41.1095 61.7737 38.8734 61.6017 37.7554C61.3437 36.2073 62.5908 34.6593 64.6118 33.2832C66.5899 31.9502 68.783 31.3051 68.697 30.9611C68.654 30.7031 67.7079 29.8001 67.3209 29.8001C67.3639 29.8001 66.8909 30.0151 66.0739 30.3591C65.2138 30.1441 64.4828 29.6711 64.4398 28.854C64.2678 26.489 66.5039 23.4788 70.503 22.7478C71.3201 22.6188 72.1371 22.7908 72.2661 23.5218C72.3521 24.0809 72.0511 24.8979 70.9331 25.7579C70.245 26.2739 70.03 26.1879 70.073 26.3599C70.116 26.532 70.331 26.747 70.8041 27.177C71.2771 27.607 71.7501 28.037 72.3091 27.951C73.1261 27.822 74.9752 25.2419 74.7602 23.9089C74.4592 22.1458 72.1371 20.7697 69.385 21.2428C68.224 21.4578 66.4609 22.1888 64.8698 23.3068C58.1186 26.1879 53.9474 26.3599 53.9474 26.3599C55.2805 21.9308 54.9795 23.0058 55.8825 20.8127C59.6666 18.9207 62.3757 15.9966 64.0958 13.3305C66.6329 9.41733 66.7189 4.55815 64.4828 4.42915C62.2897 4.38614 57.6026 7.52526 53.2164 19.0497C51.7544 19.4367 50.1203 19.6517 48.4432 19.6517C42.337 19.4797 40.2299 16.8996 39.8859 14.9645ZM63.9668 6.0202C64.8698 6.0632 64.7838 9.15932 62.6338 12.2984C61.3007 14.1905 59.4946 15.9966 57.2586 17.2866C60.1397 10.2774 62.8058 6.0632 63.9668 6.0202Z" fill="black"/>
<path d="M75.3621 66.1364C75.1901 65.1903 74.7601 64.3733 74.5451 64.4163C74.5021 64.4163 74.4161 64.5023 74.4591 64.5453C73.6421 67.4694 68.9119 73.0596 65.2568 73.7046C64.0527 73.9196 63.2787 73.1026 63.0637 71.9416C62.8057 70.3935 64.0097 68.8885 65.9878 67.5124C67.8799 66.2224 70.0299 65.5773 69.9439 65.1903C69.9009 64.9323 68.9979 63.9863 68.6109 64.0293C68.6539 64.0293 68.2239 64.2443 67.4068 64.5453C66.5468 64.3303 65.8588 63.8573 65.8158 63.0402C65.6438 60.6752 67.7938 57.665 71.664 56.977C72.438 56.848 73.255 57.02 73.3841 57.7511C73.4701 58.3101 73.212 59.1271 72.094 59.9871C71.449 60.5032 71.234 60.4172 71.277 60.5892C71.32 60.7612 71.535 60.9762 72.008 61.4492C72.481 61.8792 72.911 62.3092 73.4701 62.2232C74.2441 62.0942 76.0502 59.5141 75.8351 58.1811C75.5341 56.418 73.2981 55.042 70.632 55.515C68.0089 55.988 62.5477 59.2131 62.5477 63.1693C62.5047 64.3303 63.4937 65.4053 64.8267 65.7923C62.2036 67.2114 59.3655 69.4475 59.7956 71.9416C60.1826 74.0486 62.9777 75.4247 65.2998 75.2097C65.6868 75.2097 66.0308 75.1237 66.4178 75.0807C71.105 74.3067 76.0932 70.5225 75.3621 66.1364Z" fill="black"/>
<path d="M92.7348 69.9205C94.4118 69.6195 96.0029 68.3295 97.6369 66.2654C97.6369 66.9534 97.68 67.5985 97.809 68.1575C98.368 71.2106 99.83 70.6946 100.131 70.6516C100.69 70.5656 101.206 70.3506 101.163 70.0926C101.12 69.7916 100.518 70.3936 100.217 68.7165C99.916 67.0824 100.346 63.3413 103.27 53.4079L104.861 48.2478L107.699 47.4307C121.116 43.7756 120.858 47.0437 121.589 46.9147C121.89 46.8717 123.567 44.4636 122.148 42.5286C121.073 41.0235 119.052 41.3675 109.462 43.6466L106.151 44.4206C107.011 41.9265 107.398 41.2815 107.355 40.9805C107.269 40.5935 104.775 39.9055 104.431 39.9485C104.001 40.0345 103.829 40.3785 103.098 42.7436L102.324 45.3237C87.5746 48.3338 82.2854 46.3987 80.8233 45.7537C78.9743 44.9366 79.2323 44.5926 78.7593 44.7646C78.3292 44.8506 77.1682 46.8717 79.0173 47.6887C85.9405 50.8279 94.1968 49.7528 101.335 48.7208C99.873 53.494 98.153 59.4712 97.7229 64.1153C95.9169 66.4374 94.3688 67.7275 93.1648 67.9425C91.4877 68.2435 90.8857 66.3944 91.8747 63.0833L92.5628 61.0192C92.7348 60.5462 90.1117 59.6002 89.0366 60.8042L88.7786 61.1052C85.9405 66.2654 83.3604 69.7055 81.7264 70.0066C80.8663 70.1356 80.3503 69.6625 80.1783 68.5875C79.7483 66.2224 81.1673 62.8683 83.0164 60.1592C85.3385 56.7621 87.3166 55.214 88.4776 55.386C89.5096 55.601 89.5526 57.5791 89.0366 59.1702C88.9506 59.6432 92.8638 59.1272 93.0358 58.4821C93.5518 56.8481 92.4338 53.1929 88.0476 53.709C85.7255 54.053 81.5114 56.2891 78.6732 61.4922C74.7171 68.7595 77.9422 72.5006 81.3393 71.8986C83.3604 71.5546 85.9835 69.1895 88.2196 66.2224C88.6066 68.7595 90.3267 70.3506 92.7348 69.9205Z" fill="black"/>
<path d="M139.951 63.6854C139.736 62.0513 138.359 60.8473 138.273 61.1483C137.757 62.4383 135.951 63.5564 132.984 64.0724C128.211 64.9324 126.362 64.7604 115.053 66.0505C115.182 62.9113 113.806 60.8473 111.354 60.3313C110.752 60.2022 110.15 60.2022 109.591 60.2453C113.204 57.6652 118.622 54.655 119.482 51.6019C119.611 51.3009 119.611 51.0859 119.568 50.8709C119.482 50.3979 118.751 49.5809 118.536 49.9249C118.235 50.3549 115.956 50.9999 112.989 51.3869C111.053 51.6879 110.021 51.6879 109.161 51.3009C108.645 51.0429 108.559 50.6129 108.344 50.6559C108.172 50.6989 108.043 50.9999 107.957 51.3869C107.914 52.0749 108 53.021 108.172 53.795C108.559 55.0421 109.29 55.1711 111.44 54.7841C112.903 54.526 115.225 53.709 116.687 53.15C114.021 56.0311 104.904 59.9442 104.99 63.3844C104.904 64.1154 106.366 64.5024 106.753 64.0294C107.355 63.2124 107.914 62.9543 109.72 63.2124C110.881 63.4274 111.871 64.3304 111.828 66.5665C106.022 67.8135 101.636 70.4796 100.475 73.1027C98.97 76.6289 101.464 80.026 104.646 79.467C108.645 78.7789 113.075 74.5648 114.58 68.9316L114.623 68.5876C123.438 68.3295 125.803 68.3295 133.156 68.2865C138.488 68.2005 140.338 66.1795 139.951 63.6854ZM111.354 69.5336C110.193 74.0057 106.753 77.4459 103.915 77.4889C102.152 77.5749 101.163 75.4678 102.711 73.2317C104.517 70.6086 108.43 69.4046 111.483 68.9316C111.44 69.0606 111.441 69.3186 111.354 69.5336Z" fill="black"/>
<path d="M34.7687 84.7561C30.7696 84.412 27.9315 83.122 25.3944 78.8218C25.2224 78.4778 25.1364 78.0908 24.9214 78.3058C24.6204 78.6068 24.1903 80.4559 24.2333 81.1869C24.6204 84.068 29.0925 89.1852 35.8438 89.6152C46.3792 90.2603 57.7316 84.111 59.3226 75.3817C60.3547 69.8775 56.1835 66.9104 49.2603 66.8674C54.6355 64.3303 57.1725 60.3742 57.6026 56.762C58.2476 50.4408 54.4204 45.5816 47.6262 45.9256C44.6591 46.0116 40.2729 46.6997 38.0368 47.4307C31.2856 49.6238 27.9745 53.1929 26.1254 57.3211C27.7165 57.02 28.4905 56.848 29.3935 56.461C31.0276 53.6229 34.1237 51.0858 39.5849 49.7528C43.8421 48.7207 46.4652 48.6777 46.9812 48.6347C52.2274 48.2907 54.8505 51.6449 54.1624 56.719C53.5604 61.3202 47.8412 66.4804 41.434 67.4694C42.38 64.4163 43.584 59.7722 44.3151 57.2351C44.5301 56.461 45.3041 53.6229 46.2501 50.5268C45.0891 50.6128 43.7561 50.8278 43.24 50.9568C39.9719 62.4382 36.5748 74.8657 36.2308 76.4138C35.8008 78.2198 35.4137 79.6389 35.5858 80.5419C35.8008 81.6599 36.7898 82.004 38.3379 81.7459C38.6389 81.7029 38.0368 80.7569 38.9829 76.4998C39.2409 75.1667 39.8859 72.7156 40.9179 69.3185L42.939 68.9745C51.3673 67.4694 57.3016 69.3185 55.7965 75.2957C54.4204 80.6709 44.7021 85.7881 34.7687 84.7561Z" fill="black"/>
<path d="M92.2188 0.731029V39.7335C92.2188 40.1205 92.5628 40.4645 92.9498 40.4645C93.3368 40.4645 93.6808 40.1205 93.6808 39.7335V0.731029C93.6808 0.344015 93.3368 0 92.9498 0C92.5628 0 92.2188 0.301013 92.2188 0.731029Z" fill="black"/>
<path d="M100.26 6.57917V34.6162C100.26 35.0032 100.604 35.3472 100.991 35.3472C101.378 35.3472 101.722 35.0032 101.722 34.6162V6.57917C101.722 6.19216 101.378 5.84814 100.991 5.84814C100.604 5.84814 100.26 6.14915 100.26 6.57917Z" fill="black"/>
<path d="M108.301 12.4274V34.6162C108.301 35.0033 108.645 35.3473 109.032 35.3473C109.419 35.3473 109.763 35.0033 109.763 34.6162V12.4274C109.763 12.0404 109.419 11.6964 109.032 11.6964C108.645 11.6964 108.301 11.9974 108.301 12.4274Z" fill="black"/>
<path d="M92.2188 76.8868V101.914C92.2188 102.301 92.5628 102.645 92.9498 102.645C93.3368 102.645 93.6808 102.301 93.6808 101.914V76.8868C93.6808 76.4998 93.3368 76.1558 92.9498 76.1558C92.5628 76.1558 92.2188 76.4998 92.2188 76.8868Z" fill="black"/>
<path d="M100.991 94.6035C101.378 94.6035 101.722 94.2595 101.722 93.8725V84.3261C101.722 83.9391 101.378 83.5951 100.991 83.5951C100.604 83.5951 100.26 83.9391 100.26 84.3261V93.8725C100.26 94.2595 100.561 94.6035 100.991 94.6035Z" fill="black"/>
<path d="M109.763 87.2932V83.767C109.763 83.38 109.419 83.036 109.032 83.036C108.645 83.036 108.301 83.38 108.301 83.767V87.2932C108.301 87.6802 108.645 88.0242 109.032 88.0242C109.419 88.0242 109.763 87.6802 109.763 87.2932Z" fill="black"/>
</svg>
