<svg width="326" height="323" viewBox="0 0 326 323" fill="none" xmlns="http://www.w3.org/2000/svg">
<path d="M59.1545 192.304C79.6545 189.404 88.4545 178.504 88.0545 169.704C87.8545 166.904 85.2545 165.604 84.9545 166.504C81.8545 174.704 68.5545 184.604 51.9545 184.004C30.3545 183.204 5.35446 165.504 6.65446 134.704C7.85446 105.504 33.5545 85.304 49.2545 82.404C59.3545 80.504 60.2545 87.704 58.3545 92.504C56.8545 96.104 50.6545 103.004 41.5545 105.304C40.6545 105.504 39.7545 105.004 39.9545 105.704C40.2545 106.704 41.2545 107.904 42.9545 108.504C53.8545 112.404 62.3545 103.104 64.5545 93.504C66.8545 82.804 60.5545 73.104 47.7545 75.304C29.0545 78.604 2.45446 100.004 0.154461 133.304C-2.34554 171.104 25.8545 197.004 59.1545 192.304Z" fill="white"/>
<path d="M92.7545 79.804C92.5545 78.804 92.7545 77.904 93.1545 77.204C93.4545 76.304 90.4545 77.104 89.3545 80.904C87.3545 88.104 93.5545 98.704 108.554 98.604C112.854 98.604 116.954 98.004 120.854 96.904L117.354 107.604C113.554 108.104 110.254 108.404 108.654 108.404C107.454 108.304 110.354 113.004 113.154 113.504L115.554 113.704C115.354 113.704 113.154 121.104 110.054 132.104C106.054 137.104 102.654 139.904 99.9545 140.404C96.0545 141.104 94.6545 136.804 96.9545 129.104L98.5545 124.304C98.9545 123.204 92.8545 121.004 90.3545 123.804L89.7545 124.504C83.1545 136.504 77.1545 144.504 73.3545 145.204C71.3545 145.504 70.1545 144.404 69.7545 141.904C68.7545 136.404 72.0545 128.604 76.3545 122.304C81.7545 114.404 86.3545 110.804 89.0545 111.204C91.4545 111.704 91.5545 116.304 90.3545 120.004C90.1545 121.104 99.2545 119.904 99.6545 118.404C100.854 114.604 98.2545 106.104 88.0545 107.304C82.6545 108.104 72.8545 113.304 66.2545 125.404C57.0545 142.304 64.5545 151.004 72.4545 149.604C77.1545 148.804 83.2545 143.304 88.4545 136.404C89.3545 142.404 93.3545 146.004 98.9545 145.004C102.054 144.504 105.054 142.404 108.054 139.104C107.154 142.304 106.154 145.604 105.154 149.104H105.254C105.354 149.104 105.454 149.104 105.554 149.004C105.654 149.004 105.754 149.004 105.854 148.904C107.054 148.604 108.954 148.204 112.054 148.004C112.254 148.004 112.454 148.004 112.654 148.004C117.854 131.104 123.354 113.604 123.354 113.604C123.354 113.604 135.354 111.504 142.754 108.804C142.354 110.004 142.054 111.204 142.054 112.404C141.954 115.004 144.254 117.404 147.454 118.304V118.404C141.154 121.804 134.254 127.004 135.354 132.804C136.254 137.904 141.654 146.204 157.954 143.004C168.554 140.904 193.654 127.504 198.054 107.804C201.954 90.804 190.954 79.704 177.254 85.404C176.154 85.904 175.554 86.704 175.454 87.404C175.254 87.904 175.954 87.504 176.354 87.704C185.854 91.604 190.854 100.104 188.054 110.904C184.554 124.904 165.554 138.704 155.254 139.704C146.354 140.604 143.654 135.404 143.254 132.804C142.654 129.204 145.554 125.604 150.254 122.404C154.854 119.304 159.954 117.804 159.754 117.004C159.654 116.404 157.454 114.304 156.554 114.304C156.654 114.304 155.554 114.804 153.654 115.604C151.654 115.104 149.954 114.004 149.854 112.104C149.454 106.604 154.654 99.604 163.954 97.904C165.854 97.604 167.754 98.004 168.054 99.704C168.254 101.004 167.554 102.904 164.954 104.904C163.354 106.104 162.854 105.904 162.954 106.304C163.054 106.704 163.554 107.204 164.654 108.204C165.754 109.204 166.854 110.204 168.154 110.004C170.054 109.704 174.354 103.704 173.854 100.604C173.154 96.504 167.754 93.304 161.354 94.404C158.654 94.904 154.554 96.604 150.854 99.204C135.154 105.904 125.454 106.304 125.454 106.304C128.554 96.004 127.854 98.504 129.954 93.404C138.754 89.004 145.054 82.204 149.054 76.004C154.954 66.904 155.154 55.604 149.954 55.304C144.854 55.204 133.954 62.504 123.754 89.304C120.354 90.204 116.554 90.704 112.654 90.704C98.4545 90.304 93.5545 84.304 92.7545 79.804ZM148.754 59.004C150.854 59.104 150.654 66.304 145.654 73.604C142.554 78.004 138.354 82.204 133.154 85.204C139.854 68.904 146.054 59.104 148.754 59.004Z" fill="white"/>
<path d="M175.254 198.804C174.854 196.604 173.854 194.704 173.354 194.804C173.254 194.804 173.054 195.004 173.154 195.104C171.254 201.904 160.254 214.904 151.754 216.404C148.954 216.904 147.154 215.004 146.654 212.304C146.054 208.704 148.854 205.204 153.454 202.004C157.854 199.004 162.854 197.504 162.654 196.604C162.554 196.004 160.454 193.804 159.554 193.904C159.654 193.904 158.654 194.404 156.754 195.104C154.754 194.604 153.154 193.504 153.054 191.604C152.654 186.104 157.654 179.104 166.654 177.504C168.454 177.204 170.354 177.604 170.654 179.304C170.854 180.604 170.254 182.504 167.654 184.504C166.154 185.704 165.654 185.504 165.754 185.904C165.854 186.304 166.354 186.804 167.454 187.904C168.554 188.904 169.554 189.904 170.854 189.704C172.654 189.404 176.854 183.404 176.354 180.304C175.654 176.204 170.454 173.004 164.254 174.104C158.154 175.204 145.454 182.704 145.454 191.904C145.354 194.604 147.654 197.104 150.754 198.004C144.654 201.304 138.054 206.504 139.054 212.304C139.954 217.204 146.454 220.404 151.854 219.904C152.754 219.904 153.554 219.704 154.454 219.604C165.354 217.804 176.954 209.004 175.254 198.804Z" fill="white"/>
<path d="M215.654 207.604C219.554 206.904 223.254 203.904 227.054 199.104C227.054 200.704 227.154 202.204 227.454 203.504C228.754 210.604 232.154 209.404 232.854 209.304C234.154 209.104 235.354 208.604 235.254 208.004C235.154 207.304 233.754 208.704 233.054 204.804C232.354 201.004 233.354 192.304 240.154 169.204L243.854 157.204L250.454 155.304C281.654 146.804 281.054 154.404 282.754 154.104C283.454 154.004 287.354 148.404 284.054 143.904C281.554 140.404 276.854 141.204 254.554 146.504L246.854 148.304C248.854 142.504 249.754 141.004 249.654 140.304C249.454 139.404 243.654 137.804 242.854 137.904C241.854 138.104 241.454 138.904 239.754 144.404L237.954 150.404C203.654 157.404 191.354 152.904 187.954 151.404C183.654 149.504 184.254 148.704 183.154 149.104C182.154 149.304 179.454 154.004 183.754 155.904C199.854 163.204 219.054 160.704 235.654 158.304C232.254 169.404 228.254 183.304 227.254 194.104C223.054 199.504 219.454 202.504 216.654 203.004C212.754 203.704 211.354 199.404 213.654 191.704L215.254 186.904C215.654 185.804 209.554 183.604 207.054 186.404L206.454 187.104C199.854 199.104 193.854 207.104 190.054 207.804C188.054 208.104 186.854 207.004 186.454 204.504C185.454 199.004 188.754 191.204 193.054 184.904C198.454 177.004 203.054 173.404 205.754 173.804C208.154 174.304 208.254 178.904 207.054 182.604C206.854 183.704 215.954 182.504 216.354 181.004C217.554 177.204 214.954 168.704 204.754 169.904C199.354 170.704 189.554 175.904 182.954 188.004C173.754 204.904 181.254 213.604 189.154 212.204C193.854 211.404 199.954 205.904 205.154 199.004C206.054 204.904 210.054 208.604 215.654 207.604Z" fill="white"/>
<path d="M325.454 193.104C324.954 189.304 321.754 186.504 321.554 187.204C320.354 190.204 316.154 192.804 309.254 194.004C298.154 196.004 293.854 195.604 267.554 198.604C267.854 191.304 264.654 186.504 258.954 185.304C257.554 185.004 256.154 185.004 254.854 185.104C263.254 179.104 275.854 172.104 277.854 165.004C278.154 164.304 278.154 163.804 278.054 163.304C277.854 162.204 276.154 160.304 275.654 161.104C274.954 162.104 269.654 163.604 262.754 164.504C258.254 165.204 255.854 165.204 253.854 164.304C252.654 163.704 252.454 162.704 251.954 162.804C251.554 162.904 251.254 163.604 251.054 164.504C250.954 166.104 251.154 168.304 251.554 170.104C252.454 173.004 254.154 173.304 259.154 172.404C262.554 171.804 267.954 169.904 271.354 168.604C265.154 175.304 243.954 184.404 244.154 192.404C243.954 194.104 247.354 195.004 248.254 193.904C249.654 192.004 250.954 191.404 255.154 192.004C257.854 192.504 260.154 194.604 260.054 199.804C246.554 202.704 236.354 208.904 233.654 215.004C230.154 223.204 235.954 231.104 243.354 229.804C252.654 228.204 262.954 218.404 266.454 205.304L266.554 204.504C287.054 203.904 292.554 203.904 309.654 203.804C322.054 203.604 326.354 198.904 325.454 193.104ZM258.954 206.704C256.254 217.104 248.254 225.104 241.654 225.204C237.554 225.404 235.254 220.504 238.854 215.304C243.054 209.204 252.154 206.404 259.254 205.304C259.154 205.604 259.154 206.204 258.954 206.704Z" fill="white"/>
<path d="M80.8545 242.104C71.5545 241.304 64.9545 238.304 59.0545 228.304C58.6545 227.504 58.4545 226.604 57.9545 227.104C57.2545 227.804 56.2545 232.104 56.3545 233.804C57.2545 240.504 67.6545 252.404 83.3545 253.404C107.854 254.904 134.254 240.604 137.954 220.304C140.354 207.504 130.654 200.604 114.554 200.504C127.054 194.604 132.954 185.404 133.954 177.004C135.454 162.304 126.554 151.004 110.754 151.804C103.854 152.004 93.6545 153.604 88.4545 155.304C72.7545 160.404 65.0545 168.704 60.7545 178.304C64.4545 177.604 66.2545 177.204 68.3545 176.304C72.1545 169.704 79.3545 163.804 92.0545 160.704C101.954 158.304 108.054 158.204 109.254 158.104C121.454 157.304 127.554 165.104 125.954 176.904C124.554 187.604 111.254 199.604 96.3545 201.904C98.5545 194.804 101.354 184.004 103.054 178.104C103.554 176.304 105.354 169.704 107.554 162.504C104.854 162.704 101.754 163.204 100.554 163.504C92.9545 190.204 85.0545 219.104 84.2545 222.704C83.2545 226.904 82.3545 230.204 82.7545 232.304C83.2545 234.904 85.5545 235.704 89.1545 235.104C89.8545 235.004 88.4545 232.804 90.6545 222.904C91.2545 219.804 92.7545 214.104 95.1545 206.204L99.8545 205.404C119.454 201.904 133.254 206.204 129.754 220.104C126.554 232.604 103.954 244.504 80.8545 242.104Z" fill="white"/>
<path d="M214.454 46.7039V137.404C214.454 138.304 215.254 139.104 216.154 139.104C217.054 139.104 217.854 138.304 217.854 137.404V46.7039C217.854 45.8039 217.054 45.0039 216.154 45.0039C215.254 45.0039 214.454 45.7039 214.454 46.7039Z" fill="white"/>
<path d="M233.154 60.304V125.504C233.154 126.404 233.954 127.204 234.854 127.204C235.754 127.204 236.554 126.404 236.554 125.504V60.304C236.554 59.404 235.754 58.604 234.854 58.604C233.954 58.604 233.154 59.304 233.154 60.304Z" fill="white"/>
<path d="M251.854 73.904V125.504C251.854 126.404 252.654 127.204 253.554 127.204C254.454 127.204 255.254 126.404 255.254 125.504V73.904C255.254 73.004 254.454 72.204 253.554 72.204C252.654 72.204 251.854 72.904 251.854 73.904Z" fill="white"/>
<path d="M214.454 223.804V282.004C214.454 282.904 215.254 283.704 216.154 283.704C217.054 283.704 217.854 282.904 217.854 282.004V223.804C217.854 222.904 217.054 222.104 216.154 222.104C215.254 222.104 214.454 222.904 214.454 223.804Z" fill="white"/>
<path d="M234.854 265.004C235.754 265.004 236.554 264.204 236.554 263.304V241.104C236.554 240.204 235.754 239.404 234.854 239.404C233.954 239.404 233.154 240.204 233.154 241.104V263.304C233.154 264.204 233.854 265.004 234.854 265.004Z" fill="white"/>
<path d="M255.254 248.004V239.804C255.254 238.904 254.454 238.104 253.554 238.104C252.654 238.104 251.854 238.904 251.854 239.804V248.004C251.854 248.904 252.654 249.704 253.554 249.704C254.454 249.704 255.254 248.904 255.254 248.004Z" fill="white"/>
<path d="M25.6545 237.804L25.7545 237.704C25.7545 237.704 27.5545 239.804 29.8545 238.504C31.6545 237.504 32.3545 235.504 30.5545 232.304L28.6545 228.804C28.2545 228.004 27.9545 228.104 27.5545 228.404C27.2545 228.604 17.4545 234.104 16.4545 234.604C16.0545 234.804 15.6545 235.104 15.9545 235.704L18.0545 239.504C19.8545 242.804 22.1545 243.404 24.2545 242.204C26.9545 240.804 25.6545 237.804 25.6545 237.804ZM27.8545 230.304L29.3545 233.104C30.2545 234.804 30.2545 236.404 28.9545 237.104C27.5545 237.904 26.0545 237.304 25.0545 235.504L23.4545 232.704L27.8545 230.304ZM23.4545 240.704C21.7545 241.704 20.2545 240.604 19.2545 238.904L17.5545 235.904L22.2545 233.304L23.9545 236.304C25.0545 238.304 24.9545 239.904 23.4545 240.704Z" fill="white"/>
<path d="M31.3545 250.804C32.6545 251.904 34.9545 252.704 37.0545 251.204C39.2545 249.604 39.8545 247.004 37.8545 244.104L35.4544 240.504C35.0544 239.904 34.5545 240.104 34.0545 240.404C33.7545 240.604 24.6545 246.804 23.7545 247.404C23.3545 247.704 22.9545 247.904 23.3545 248.404L23.6545 248.904C23.8545 249.304 24.1545 249.304 24.6545 248.904C25.3545 248.404 27.6545 246.804 28.1545 246.504L30.1545 249.504L28.3545 254.304C28.0545 255.104 27.9545 255.604 28.4545 256.304C28.9545 257.004 29.5545 257.104 30.2545 256.304C29.8545 255.704 29.7545 255.504 29.9545 254.904L31.3545 250.804ZM29.2545 245.704C29.8545 245.304 33.6545 242.704 34.7545 241.904L36.7545 244.804C38.1545 246.804 37.4545 248.804 36.1545 249.704C34.3545 251.004 32.4545 250.404 31.3545 248.604L29.2545 245.704Z" fill="white"/>
<path d="M34.2545 260.904C35.3545 260.004 36.6545 258.904 38.0545 257.804C39.3545 259.304 41.5545 262.004 41.9545 262.504C42.1545 262.704 42.2545 262.804 42.5545 262.604L42.9545 262.204C43.2545 262.004 43.2545 261.704 43.0545 261.604C42.6545 261.204 40.3545 258.404 39.1545 256.904L43.0545 253.704L47.4545 259.104C47.7545 259.404 47.9545 259.404 48.1545 259.204L48.4545 258.904C48.6545 258.704 48.8545 258.504 48.5545 258.104L43.4545 251.904C42.9545 251.304 42.5545 251.804 42.1545 252.104C41.8545 252.304 33.6545 259.304 32.7545 260.004C32.3545 260.304 32.0545 260.704 32.3545 261.104L37.4545 267.304C37.7545 267.604 37.8545 267.704 38.1545 267.404L38.5545 267.004C38.8545 266.804 38.9545 266.504 38.6545 266.204C38.1545 265.604 35.4545 262.304 34.2545 260.904Z" fill="white"/>
<path d="M54.8545 264.604L54.3545 264.104C53.9545 263.704 53.5545 263.704 53.1545 263.904C52.4545 264.304 41.2545 269.204 40.4545 269.604C40.0545 269.804 39.9545 270.104 40.1545 270.304L40.5545 270.804C40.7545 271.004 41.0545 271.104 41.5545 270.904C41.8545 270.704 43.2545 270.204 44.4545 269.604L49.1545 274.404C48.7545 275.404 48.0545 276.904 47.8545 277.404C47.7545 277.604 47.4545 277.904 47.9545 278.404L48.2545 278.704C48.5545 279.004 48.8545 279.004 49.0545 278.604C49.3545 278.004 54.6545 266.704 54.9545 266.104C55.2545 265.404 55.3545 265.104 54.8545 264.604ZM49.9545 273.004L45.7545 268.804C48.8545 267.404 52.5545 265.704 53.4545 265.204L53.5545 265.304C53.1545 266.304 51.3545 270.004 49.9545 273.004Z" fill="white"/>
<path d="M60.4545 286.704C60.4545 286.004 60.6545 281.704 60.8545 279.904C62.9545 279.404 67.9545 278.404 69.1545 278.204C69.4545 278.104 69.5545 277.704 69.2545 277.504L68.5545 276.904C68.3545 276.704 68.0545 276.704 67.7545 276.804C66.8545 277.004 61.5545 278.104 60.1545 278.404L57.9545 276.504C59.7545 274.404 61.5545 272.404 61.5545 272.304C61.8545 272.004 62.1545 271.604 61.6545 271.204L61.2545 270.804C60.6545 270.304 60.4545 270.904 60.1545 271.304C59.9545 271.604 52.9545 280.004 52.1545 280.804C51.8545 281.104 51.5545 281.504 51.9545 281.904L52.4545 282.304C52.9545 282.704 53.2545 282.204 53.5545 281.804C53.7545 281.504 55.3545 279.604 57.0545 277.604L59.2545 279.404C59.1545 280.704 58.8545 285.004 58.7545 286.404C58.6545 287.404 58.8545 287.804 59.4545 288.404C60.0545 288.904 60.7545 288.904 61.2545 288.004C60.6545 287.404 60.4545 287.304 60.4545 286.704Z" fill="white"/>
<path d="M74.0545 290.404L74.3545 290.004C74.6545 289.604 74.3545 289.404 74.0545 289.204C72.8545 288.404 70.0545 286.404 69.2545 285.804L72.2545 281.504L77.5545 285.204C77.9545 285.504 78.1545 285.504 78.4545 285.104L78.6545 284.804C78.9545 284.404 78.7545 284.104 78.4545 283.904L72.4545 279.704C71.8545 279.304 71.5545 279.404 71.0545 280.104C70.8545 280.304 66.7545 286.304 64.9545 288.904C64.5545 289.504 64.1545 290.004 64.0545 290.104C63.5545 290.704 63.4545 291.004 63.9545 291.304L64.4545 291.604C64.9545 292.004 65.2545 291.504 65.5545 291.004C65.6545 290.804 67.1545 288.604 68.4545 286.904C69.7545 287.804 72.8545 290.004 73.4545 290.404C73.6545 290.704 73.8545 290.704 74.0545 290.404Z" fill="white"/>
<path d="M85.2545 288.104L84.6545 287.704C84.1545 287.404 83.7545 287.504 83.4545 287.804C82.8545 288.304 73.3545 295.904 72.6545 296.604C72.2545 296.904 72.2545 297.204 72.5545 297.304L73.0545 297.604C73.3545 297.804 73.6545 297.804 74.0545 297.404C74.3545 297.104 75.4545 296.304 76.5545 295.404L82.3545 298.804C82.1545 299.904 81.8545 301.504 81.8545 302.004C81.8545 302.204 81.6545 302.604 82.1545 302.904L82.5545 303.104C82.9545 303.304 83.1545 303.204 83.2545 302.804C83.4545 302.204 85.5545 289.904 85.7545 289.204C85.8545 288.904 85.8545 288.504 85.2545 288.104ZM82.6545 297.604L77.5545 294.604C80.2545 292.504 83.3545 289.804 84.1545 289.104L84.2545 289.204C84.0545 290.204 83.2545 294.304 82.6545 297.604Z" fill="white"/>
<path d="M96.0545 293.604C93.1545 292.204 90.6544 293.104 89.6544 295.104C88.6544 297.104 89.8545 298.704 91.3545 299.904L93.1544 301.504C94.4544 302.604 94.9544 303.804 94.4544 304.804C93.7544 306.204 92.0545 306.604 90.0545 305.604C87.7545 304.504 87.2544 302.704 87.2544 302.704C87.2544 302.704 86.6545 302.704 86.3545 303.104C86.0545 303.504 86.0545 303.904 86.3545 304.404C86.6545 305.004 87.6544 306.104 89.4544 306.904C92.3544 308.304 95.0544 307.804 96.1544 305.504C96.9544 303.804 96.4545 302.104 94.5545 300.404L92.7544 298.804C91.8544 298.004 90.8545 297.004 91.3545 295.804C91.9545 294.504 93.4544 293.904 95.4544 294.904C97.5544 295.904 98.3545 297.604 98.3545 297.604C98.3545 297.604 98.7545 297.604 99.0545 297.304C99.5545 296.904 99.4544 296.404 99.1544 295.904C98.6544 295.404 97.8545 294.504 96.0545 293.604Z" fill="white"/>
<path d="M111.454 300.304C110.754 300.104 101.954 296.704 101.954 296.704C101.554 296.504 101.354 296.604 101.254 297.004L101.054 297.504C100.954 297.904 100.954 298.104 101.354 298.204C101.554 298.304 104.654 299.504 105.254 299.704C104.354 302.004 101.054 310.404 100.954 310.804C100.754 311.204 100.554 311.704 101.154 311.904L101.754 312.104C102.454 312.404 102.554 311.704 102.654 311.304C102.754 311.004 105.754 303.004 106.854 300.304L110.854 301.804C111.254 302.004 111.354 301.904 111.454 301.604L111.654 301.104C111.854 300.604 111.854 300.404 111.454 300.304Z" fill="white"/>
<path d="M109.954 312.004C109.154 311.704 108.454 312.004 108.154 312.904C107.754 314.004 108.354 314.604 109.454 314.904C108.754 317.004 106.854 316.704 106.854 316.704C106.854 316.704 106.354 317.404 107.354 317.804C108.254 318.104 109.954 317.504 110.854 314.704C111.354 313.104 110.954 312.304 109.954 312.004Z" fill="white"/>
<path d="M131.054 318.604C130.354 318.504 126.354 317.704 124.554 317.304C124.954 315.504 126.054 309.704 126.654 307.004C126.754 306.404 126.854 306.104 126.954 305.904C127.054 305.404 127.354 304.704 126.654 304.604L126.054 304.504C125.554 304.404 125.454 304.804 125.354 305.404C125.254 306.004 125.154 306.504 125.054 307.004C124.554 309.304 123.754 313.204 123.254 315.604L122.854 317.604C122.754 318.104 122.754 318.604 123.354 318.704L130.754 320.204C131.154 320.304 131.354 320.104 131.454 319.804L131.554 319.304C131.654 318.904 131.454 318.604 131.054 318.604Z" fill="white"/>
<path d="M147.354 307.804L146.754 307.704C146.254 307.604 146.154 308.004 146.154 308.504C146.154 308.804 145.754 312.004 145.354 315.304C144.954 318.704 143.654 320.604 140.754 320.304C137.654 319.904 136.954 317.704 137.354 314.404C137.754 311.004 138.154 308.004 138.154 307.504C138.254 307.104 138.254 306.704 137.654 306.704L137.054 306.604C136.554 306.504 136.454 306.904 136.354 307.404C136.354 307.704 135.854 311.404 135.554 314.204C135.054 318.404 135.954 321.204 140.454 321.804C144.854 322.304 146.354 319.704 146.954 315.604C147.154 314.604 147.754 309.204 147.854 308.704C147.954 308.204 147.954 307.904 147.354 307.804Z" fill="white"/>
<path d="M162.654 308.304H162.054C161.454 308.304 161.454 308.704 161.454 308.904C161.454 309.604 161.454 317.904 161.354 318.904H161.154L152.954 308.104H152.154C151.554 308.104 151.454 308.404 151.354 308.904C151.354 309.204 151.254 320.404 151.154 321.504C151.154 321.904 151.154 322.504 151.754 322.504H152.354C153.154 322.504 152.954 321.804 152.954 321.404C152.954 321.104 152.954 312.504 152.954 311.104H153.154C154.254 312.604 161.054 321.104 161.154 321.804C161.254 322.204 161.254 322.704 161.754 322.704H162.354C163.154 322.704 162.954 322.104 162.954 321.604C162.954 320.904 163.154 310.404 163.154 309.304C163.254 308.904 163.254 308.304 162.654 308.304Z" fill="white"/>
<path d="M177.754 319.804C177.554 319.504 177.254 319.604 177.054 319.804C176.554 320.204 175.654 320.704 174.254 320.804C171.154 321.104 169.054 318.704 168.754 315.304C168.454 312.004 169.954 309.304 173.354 309.004C175.654 308.804 177.054 309.804 177.054 309.804C177.054 309.804 177.254 309.704 177.354 309.504C177.854 308.804 177.554 308.404 177.154 308.204C176.654 307.904 175.354 307.404 173.254 307.504C168.654 307.904 166.654 311.304 167.054 315.504C167.454 319.804 169.854 322.704 174.454 322.404C176.554 322.204 177.854 321.404 178.154 321.104C178.454 320.904 178.354 320.704 178.254 320.504L177.754 319.804Z" fill="white"/>
<path d="M192.554 305.704C192.454 305.304 192.354 304.704 191.854 304.804L191.254 304.904C190.454 305.004 190.854 305.604 190.954 306.104L191.954 311.504L183.554 313.004C183.054 310.304 182.554 307.804 182.554 307.504C182.454 307.104 182.354 306.504 181.854 306.604L181.254 306.704C180.454 306.804 180.854 307.404 180.954 307.904C180.954 308.204 182.954 318.904 183.154 320.004C183.154 320.404 183.354 321.004 183.954 320.904L184.554 320.804C185.354 320.704 185.054 320.004 184.954 319.604C184.854 319.204 184.454 316.904 183.954 314.404L192.454 312.904C192.854 315.304 193.354 317.704 193.354 318.204C193.454 318.604 193.554 319.204 194.154 319.104L194.754 319.004C195.554 318.904 195.154 318.204 195.154 317.804C194.654 317.104 192.654 306.204 192.554 305.704Z" fill="white"/>
<path d="M218.054 310.604L215.554 309.604C215.954 308.004 215.954 306.604 215.954 305.704C215.954 305.304 215.854 305.004 215.554 305.004H214.754C214.354 305.004 214.354 305.204 214.354 305.504C214.454 306.204 214.554 307.604 214.254 309.004L208.054 306.504C206.854 306.004 206.254 305.404 205.854 304.504C205.454 303.304 206.154 302.204 207.654 301.704C209.554 301.004 211.254 301.904 211.254 301.904C211.254 301.904 211.454 301.704 211.554 301.504C211.854 300.704 211.354 300.404 210.854 300.204C210.454 300.104 209.154 299.604 207.154 300.304C204.354 301.304 203.554 303.404 204.254 305.204C204.654 306.504 205.754 307.204 207.254 307.804V307.904C207.254 307.904 204.354 309.504 205.354 312.404C206.154 314.604 208.354 315.704 211.354 314.704C213.254 314.104 214.354 312.804 215.054 311.304L217.354 312.304C217.654 312.404 217.954 312.404 218.154 312.004L218.354 311.504C218.554 310.904 218.354 310.804 218.054 310.604ZM210.754 313.104C209.054 313.704 207.354 313.104 206.854 311.504C206.354 310.004 207.054 308.704 208.354 308.204L213.654 310.504C213.054 311.704 212.254 312.704 210.754 313.104Z" fill="white"/>
<path d="M235.654 288.604C235.454 288.204 235.154 287.704 234.554 288.104L233.554 288.604C233.254 288.804 232.854 289.004 232.954 289.604C233.054 290.404 234.154 300.304 234.154 300.304L234.054 300.404C234.054 300.404 226.354 294.004 225.854 293.404C225.454 293.104 225.154 293.204 224.854 293.304L223.754 293.904C223.254 294.204 223.354 294.504 223.554 294.804C223.854 295.404 228.354 305.704 228.754 306.704C228.954 307.104 229.154 307.404 229.654 307.104L230.254 306.804C230.754 306.504 230.554 306.204 230.354 305.804C229.754 304.604 226.654 297.604 225.354 295.004L225.454 294.904C226.354 295.704 233.054 301.404 233.454 301.804C233.754 302.004 234.054 302.104 234.554 301.904L235.454 301.404C235.854 301.204 235.954 300.904 235.954 300.404C235.854 299.804 234.954 291.404 234.754 290.004L234.854 289.904C235.754 291.404 240.854 299.504 241.054 300.004C241.254 300.404 241.354 300.804 241.954 300.504L242.454 300.204C243.154 299.804 242.754 299.504 242.454 299.104C241.154 297.204 236.554 289.904 235.654 288.604Z" fill="white"/>
<path d="M243.354 282.004C239.754 284.504 239.854 288.404 242.254 291.804C244.654 295.304 248.154 296.804 251.754 294.304C255.154 292.004 255.254 288.004 252.754 284.504C250.354 281.104 246.754 279.704 243.354 282.004ZM250.954 293.104C248.054 295.104 245.454 293.504 243.754 290.804C241.954 288.204 241.454 285.204 244.254 283.304C246.954 281.404 249.654 282.904 251.454 285.604C253.054 288.104 253.654 291.204 250.954 293.104Z" fill="white"/>
<path d="M268.054 279.604C267.554 280.104 267.254 280.204 266.754 280.104L262.454 279.104C263.454 277.604 263.954 275.304 262.354 273.404C260.554 271.404 257.854 271.004 255.154 273.304L251.854 276.104C251.254 276.604 251.554 277.104 251.854 277.504C252.054 277.704 259.154 286.204 259.854 287.004C260.154 287.304 260.454 287.704 260.954 287.304L261.354 286.904C261.654 286.604 261.654 286.404 261.254 285.904C260.654 285.304 258.854 283.104 258.554 282.704L261.354 280.404L266.254 281.704C267.054 281.904 267.554 282.004 268.254 281.404C268.854 280.904 268.854 280.204 268.054 279.604ZM260.254 279.504L257.554 281.804C257.054 281.204 254.154 277.704 253.254 276.704L255.954 274.404C257.854 272.804 259.854 273.304 260.854 274.604C262.354 276.204 261.854 278.104 260.254 279.504Z" fill="white"/>
<path d="M277.654 270.404C277.354 270.104 277.154 270.104 276.854 270.404C276.354 271.004 273.254 274.104 272.054 275.404C271.054 274.404 269.854 273.204 268.554 272.004C269.954 270.604 272.354 268.104 272.854 267.704C273.054 267.504 273.054 267.404 272.854 267.104L272.454 266.704C272.154 266.404 271.954 266.504 271.854 266.704C271.454 267.104 268.954 269.704 267.554 271.004L263.954 267.504L268.854 262.504C269.154 262.204 269.154 262.004 268.854 261.704L268.554 261.404C268.354 261.204 268.054 261.104 267.754 261.404L262.054 267.104C261.454 267.704 262.054 268.004 262.454 268.404C262.654 268.604 270.454 276.204 271.254 277.004C271.554 277.304 272.054 277.704 272.454 277.304L278.054 271.604C278.354 271.304 278.354 271.204 278.154 270.904L277.654 270.404Z" fill="white"/>
<path d="M62.8545 49.1041C63.1545 49.5041 63.6545 49.804 64.0545 49.404L66.4545 47.504C70.9545 43.904 70.6545 40.304 67.9545 36.904C65.4545 33.704 61.9545 32.6041 57.4545 36.1041L55.0545 38.004C54.4545 38.504 54.7545 38.904 55.1545 39.404C55.7545 40.104 62.1545 48.2041 62.8545 49.1041ZM58.3545 37.2041C62.0545 34.3041 64.6545 35.604 66.5545 38.004C68.5545 40.604 69.3545 43.404 65.6545 46.404L63.9545 47.7041C61.8545 45.1041 58.2545 40.604 56.6545 38.504L58.3545 37.2041Z" fill="white"/>
<path d="M73.4545 41.104C73.5545 41.604 73.8545 41.704 74.0545 41.504L74.5545 41.204C74.8545 41.004 74.9545 40.804 74.7545 40.304C74.6545 39.904 74.3545 38.504 74.0545 37.204L79.6545 33.504C80.5545 34.104 81.8545 35.104 82.3545 35.404C82.5545 35.504 82.7545 35.904 83.3545 35.504L83.7545 35.304C84.1545 35.104 84.1545 34.804 83.8545 34.504C83.3545 34.104 73.2545 26.704 72.7545 26.204C72.2545 25.804 71.9545 25.704 71.3545 26.104L70.7545 26.504C70.2545 26.804 70.1545 27.204 70.3545 27.704C70.6545 28.304 73.2545 40.204 73.4545 41.104ZM71.9545 27.404C72.7545 28.104 76.0545 30.504 78.7545 32.604L73.7545 35.804C73.0545 32.504 72.0545 28.504 71.7545 27.504L71.9545 27.404Z" fill="white"/>
<path d="M86.5545 32.6041C86.7545 33.0041 87.0545 33.5041 87.5545 33.2041L88.0545 32.9041C88.7545 32.5041 88.2545 32.0041 87.9545 31.6041C86.8545 29.7041 83.0545 23.0041 81.9545 20.8041C81.7545 20.4041 81.4545 19.9041 80.9545 20.2041L80.4545 20.5041C79.7545 20.9041 80.2545 21.3041 80.5545 21.8041C81.6545 24.0041 85.9545 31.6041 86.5545 32.6041Z" fill="white"/>
<path d="M87.3545 19.9041C88.3545 22.0041 90.1544 25.6041 91.1544 27.8041L92.0545 29.7041C92.2545 30.2041 92.5544 30.6041 93.1544 30.3041L99.9545 27.1041C100.354 26.9041 100.354 26.7041 100.254 26.4041L100.054 26.0041C99.8545 25.7041 99.6545 25.6041 99.2545 25.7041C98.6545 26.0041 94.9545 27.8041 93.3545 28.6041C92.5545 27.0041 89.9545 21.6041 88.7545 19.1041C88.4545 18.5041 88.3545 18.3041 88.2545 18.1041C88.0545 17.6041 87.8545 16.9041 87.2545 17.2041L86.6544 17.5041C86.1544 17.7041 86.3544 18.1041 86.6544 18.6041C86.9544 18.9041 87.1545 19.4041 87.3545 19.9041Z" fill="white"/>
<path d="M95.4545 13.904C95.8545 14.204 101.654 18.204 102.954 19.204C103.154 19.804 104.554 23.304 104.754 23.904C104.854 24.304 105.154 24.804 105.654 24.604L106.254 24.404C106.954 24.104 106.554 23.604 106.354 23.104C106.154 22.704 104.854 19.104 104.554 18.604C104.854 17.304 106.354 10.304 106.554 9.50403C106.654 9.20403 106.354 8.80403 105.954 9.00403L105.354 9.20403C104.854 9.40403 104.754 9.60403 104.754 10.004C104.654 10.604 103.654 15.904 103.254 17.404L103.154 17.504C101.954 16.604 98.0545 13.804 97.1545 13.104C96.9545 12.904 96.6545 12.704 96.1545 12.804L95.4545 13.104C94.9545 13.304 95.2545 13.804 95.4545 13.904Z" fill="white"/>
<path d="M119.154 17.4041C119.354 18.1041 119.454 18.7041 119.454 18.9041C119.554 19.7041 119.754 19.9041 120.354 19.8041L120.954 19.7041C121.554 19.6041 121.354 19.0041 121.154 18.5041C121.054 18.3041 120.454 15.7041 119.854 13.6041C121.354 13.2041 125.054 12.3041 125.754 12.1041C126.054 12.0041 126.154 11.8041 126.054 11.5041L125.954 11.0041C125.854 10.6041 125.554 10.6041 125.154 10.7041C123.754 11.0041 120.454 11.9041 119.454 12.1041L118.154 7.00406L124.454 5.40406C124.954 5.30406 125.054 5.20406 124.954 4.70406L124.854 4.30406C124.754 3.80406 124.454 3.80406 124.054 3.90406L116.954 5.70406C116.254 5.90406 116.154 6.20406 116.354 7.00406C116.554 7.30406 118.354 14.3041 119.154 17.4041Z" fill="white"/>
<path d="M131.254 16.204C131.354 16.604 131.354 17.104 131.954 17.004L132.454 16.904C132.854 16.804 133.054 16.604 132.854 16.004C132.654 15.204 132.254 12.404 132.254 11.804L135.854 11.304L139.354 15.004C139.954 15.604 140.354 15.904 141.254 15.804C142.054 15.704 142.454 15.104 142.054 14.204C141.354 14.304 141.054 14.304 140.654 13.904L137.454 10.804C139.054 10.104 140.754 8.40399 140.354 5.80399C139.954 3.20399 137.754 1.50399 134.254 2.00399L129.954 2.70399C129.154 2.80399 129.154 3.40398 129.254 3.90398C129.454 4.20398 131.154 15.104 131.254 16.204ZM134.554 3.40398C137.054 3.00398 138.454 4.50398 138.654 6.10398C139.054 8.30398 137.654 9.70399 135.554 10.004L132.054 10.504C131.954 9.80399 131.254 5.20398 131.054 3.90398L134.554 3.40398Z" fill="white"/>
<path d="M145.554 14.2039C145.554 14.6039 145.654 15.2039 146.254 15.2039L154.254 14.7039C154.654 14.7039 154.754 14.6039 154.754 14.2039V13.6039C154.754 13.2039 154.554 13.0039 154.154 13.1039C153.354 13.2039 149.054 13.4039 147.254 13.6039C147.154 12.2039 147.054 10.5039 146.954 8.7039C148.954 8.6039 152.454 8.40389 153.054 8.30389C153.354 8.30389 153.454 8.20389 153.454 7.90389V7.30389C153.454 6.90389 153.254 6.80389 152.954 6.90389C152.354 6.90389 148.754 7.20389 146.854 7.30389L146.554 2.30389L153.554 1.90389C153.954 1.90389 154.054 1.70389 154.054 1.30389V0.903893C154.054 0.603893 153.954 0.303893 153.454 0.403893L145.454 0.903893C144.654 0.903893 144.854 1.60389 144.854 2.10389C144.754 2.30389 145.554 13.1039 145.554 14.2039Z" fill="white"/>
<path d="M160.954 7.70397L163.254 8.40397C164.854 8.80397 165.854 9.70397 165.854 10.904C165.854 12.504 164.454 13.504 162.154 13.404C159.654 13.304 158.354 11.904 158.354 11.904C158.354 11.904 157.854 12.104 157.754 12.604C157.654 13.104 157.754 13.504 158.254 13.804C158.754 14.204 160.154 14.804 162.054 14.804C165.254 14.904 167.554 13.304 167.554 10.804C167.554 8.90397 166.454 7.60397 164.054 6.80397L161.754 6.10397C160.554 5.80397 159.254 5.20397 159.254 3.90397C159.254 2.40397 160.354 1.30397 162.654 1.40397C164.954 1.50397 166.354 2.70397 166.354 2.70397C166.354 2.70397 166.654 2.50397 166.854 2.20397C167.154 1.70397 166.854 1.20397 166.354 0.903971C165.654 0.503971 164.554 0.00397326 162.654 0.00397326C159.454 -0.0960267 157.554 1.70397 157.454 4.00397C157.354 6.30397 159.054 7.20397 160.954 7.70397Z" fill="white"/>
<path d="M170.954 15.1041L171.554 15.2041C172.354 15.3041 172.254 14.6041 172.254 14.2041C172.254 13.8041 172.554 11.5041 172.854 8.90407L181.354 10.0041C181.054 12.4041 180.754 14.9041 180.654 15.4041C180.554 15.8041 180.554 16.4041 181.154 16.5041L181.754 16.6041C182.554 16.7041 182.454 16.0041 182.454 15.6041C182.454 14.9041 183.854 3.90407 183.954 3.40407C184.054 3.00407 184.054 2.40407 183.554 2.30407L182.954 2.20407C182.154 2.10407 182.354 2.80407 182.254 3.30407L181.554 8.70407L173.054 7.60407C173.354 4.90407 173.754 2.30407 173.754 2.00407C173.854 1.60407 173.854 1.00407 173.354 0.904067L172.754 0.804068C171.954 0.704068 172.154 1.40407 172.054 1.90407C171.954 2.20407 170.754 13.0041 170.554 14.1041C170.454 14.4041 170.454 15.0041 170.954 15.1041Z" fill="white"/>
<path d="M193.954 18.904L194.554 19.004C195.154 19.204 195.254 18.604 195.354 18.104C195.354 17.804 196.054 15.304 196.654 13.204C198.154 13.604 201.854 14.604 202.554 14.804C202.854 14.904 203.054 14.804 203.154 14.404L203.254 13.904C203.354 13.504 203.054 13.404 202.754 13.304C201.354 12.904 198.054 12.104 197.054 11.804L198.454 6.704L204.654 8.40399C205.154 8.50399 205.354 8.504 205.454 8.004L205.554 7.60399C205.654 7.10399 205.454 6.904 205.054 6.804L197.954 4.90399C197.254 4.70399 197.054 5.004 196.854 5.804C196.754 6.004 194.954 13.104 194.154 16.204C193.954 16.904 193.754 17.504 193.754 17.704C193.354 18.404 193.354 18.704 193.954 18.904Z" fill="white"/>
<path d="M209.954 24.004C213.854 25.404 217.054 23.304 218.554 19.304C219.954 15.304 219.054 11.504 215.254 10.104C211.154 8.60399 207.954 10.904 206.554 14.804C204.954 18.804 205.754 22.504 209.954 24.004ZM208.154 15.404C209.254 12.404 211.354 10.304 214.554 11.504C217.654 12.704 217.954 15.704 216.854 18.704C215.754 21.604 213.554 23.804 210.454 22.704C207.154 21.504 207.054 18.404 208.154 15.404Z" fill="white"/>
<path d="M223.954 30.104C227.654 31.904 231.154 30.104 232.954 26.304C234.854 22.504 234.254 18.604 230.554 16.804C226.654 14.904 223.254 16.804 221.454 20.604C219.654 24.404 219.954 28.204 223.954 30.104ZM223.154 21.404C224.554 18.504 226.954 16.604 229.954 18.204C232.954 19.704 232.854 22.704 231.454 25.604C230.054 28.404 227.654 30.404 224.654 28.904C221.554 27.304 221.654 24.204 223.154 21.404Z" fill="white"/>
<path d="M233.354 34.904L235.954 36.504C240.854 39.604 244.154 38.104 246.454 34.504C248.654 31.104 248.554 27.404 243.754 24.304L241.254 22.704C240.554 22.304 240.254 22.704 239.954 23.204C239.454 24.004 234.054 32.704 233.354 33.604C232.954 34.004 232.854 34.504 233.354 34.904ZM241.154 24.304L242.954 25.404C246.954 27.904 246.554 30.804 244.954 33.404C243.154 36.204 240.854 37.904 236.754 35.304L234.954 34.204C236.554 31.404 239.754 26.504 241.154 24.304Z" fill="white"/>
<path d="M258.254 51.1039L258.554 53.6039C258.654 53.9039 258.754 54.2039 259.254 54.1039L259.854 54.0039C260.254 54.0039 260.354 53.7039 260.354 53.4039L259.954 50.8039C261.454 50.4039 262.754 49.6039 263.554 49.2039C263.854 49.0039 264.154 48.8039 263.954 48.5039L263.554 47.8039C263.354 47.5039 263.154 47.5039 262.854 47.7039C262.254 48.1039 261.154 48.9039 259.754 49.3039L258.854 42.7039C258.654 41.4039 258.854 40.6039 259.454 39.8039C260.254 38.8039 261.554 38.9039 262.754 39.9039C264.254 41.2039 264.354 43.1039 264.354 43.1039C264.354 43.1039 264.654 43.2039 264.854 43.1039C265.654 43.0039 265.654 42.3039 265.654 41.9039C265.554 41.5039 265.354 40.1039 263.754 38.7039C261.454 36.8039 259.354 37.2039 258.054 38.6039C257.154 39.6039 257.054 40.9039 257.254 42.5039L257.154 42.6039C257.154 42.6039 254.354 40.9039 252.354 43.2039C250.854 45.0039 251.054 47.5039 253.454 49.6039C254.954 50.9039 256.654 51.2039 258.254 51.1039ZM253.854 44.3039C254.854 43.1039 256.354 43.0039 257.454 43.9039L258.154 49.6039C256.954 49.7039 255.654 49.4039 254.554 48.4039C253.154 47.3039 252.754 45.6039 253.854 44.3039Z" fill="white"/>
<path d="M273.454 68.5039C273.854 68.6039 273.954 68.4039 273.954 68.2039L274.154 67.6039C274.254 67.2039 274.054 67.1039 273.754 67.0039C273.154 66.8039 272.154 66.4039 271.254 65.3039C269.154 62.9039 269.854 59.8039 272.454 57.6039C274.954 55.4039 278.054 55.0039 280.254 57.5039C281.754 59.3039 281.754 61.0039 281.754 61.0039C281.754 61.0039 281.954 61.1039 282.254 61.1039C283.154 61.1039 283.254 60.6039 283.154 60.1039C283.054 59.5039 282.754 58.1039 281.354 56.5039C278.354 53.0039 274.354 53.5039 271.254 56.2039C268.054 59.0039 267.054 62.8039 270.154 66.2039C271.654 67.9039 272.954 68.4039 273.454 68.5039Z" fill="white"/>
<path d="M278.354 76.7039C280.754 80.1039 284.654 80.1039 288.154 77.6039C291.554 75.2039 292.954 71.5039 290.554 68.1039C288.054 64.5039 284.154 64.7039 280.754 67.1039C277.254 69.7039 275.754 73.1039 278.354 76.7039ZM289.254 69.0039C291.154 71.7039 289.654 74.3039 287.054 76.2039C284.554 78.0039 281.454 78.6039 279.554 75.9039C277.554 73.1039 279.154 70.4039 281.754 68.6039C284.354 66.8039 287.354 66.2039 289.254 69.0039Z" fill="white"/>
<path d="M284.854 84.204C284.154 84.604 283.954 84.704 284.254 85.304L284.554 85.804C284.854 86.304 285.354 86.004 285.754 85.704C285.954 85.604 288.154 84.204 290.054 83.104C290.854 84.504 292.754 87.804 293.054 88.304C293.154 88.604 293.454 88.604 293.754 88.404L294.154 88.204C294.554 88.004 294.454 87.704 294.254 87.404C293.554 86.204 291.754 83.204 291.254 82.304L295.754 79.704L298.954 85.304C299.154 85.704 299.354 85.904 299.754 85.604L300.054 85.404C300.454 85.204 300.454 84.804 300.254 84.504L296.554 78.204C296.154 77.604 295.854 77.604 295.154 78.004C294.954 78.104 288.654 81.804 285.854 83.404C285.554 83.804 285.054 84.104 284.854 84.204Z" fill="white"/>
<path d="M290.754 94.804C290.054 95.104 289.854 95.304 290.054 95.804L290.254 96.304C290.554 96.904 290.954 96.604 291.454 96.304C291.654 96.204 294.054 95.004 295.954 94.104C296.654 95.504 298.254 99.004 298.554 99.604C298.654 99.904 298.954 100.004 299.254 99.804L299.654 99.604C300.054 99.404 299.954 99.104 299.854 98.804C299.254 97.504 297.754 94.404 297.354 93.504L302.054 91.304L304.854 97.104C305.054 97.504 305.154 97.704 305.654 97.504L305.954 97.304C306.354 97.104 306.354 96.804 306.254 96.504L303.154 89.904C302.854 89.204 302.554 89.204 301.754 89.604C301.554 89.704 294.954 92.804 292.054 94.204C291.554 94.504 290.954 94.704 290.754 94.804Z" fill="white"/>
<path d="M295.054 106.804L297.854 114.304C298.054 114.704 298.154 114.804 298.454 114.604L298.954 114.404C299.354 114.304 299.454 114.004 299.354 113.704C299.054 113.004 297.554 108.904 296.854 107.204C298.154 106.704 299.754 106.104 301.454 105.504C302.154 107.304 303.354 110.604 303.554 111.204C303.654 111.504 303.754 111.504 304.054 111.404L304.554 111.204C304.854 111.104 304.954 110.804 304.854 110.604C304.654 110.104 303.354 106.704 302.754 104.904L307.454 103.104L309.854 109.604C309.954 110.004 310.154 110.004 310.554 109.904L310.954 109.704C311.254 109.604 311.454 109.404 311.354 109.004L308.554 101.404C308.254 100.704 307.754 101.004 307.254 101.204C306.954 101.304 296.854 105.204 295.754 105.504C295.354 106.004 294.854 106.304 295.054 106.804Z" fill="white"/>
<path d="M299.254 118.804L301.354 126.504C301.454 126.904 301.554 127.004 301.954 126.904L302.554 126.704C302.954 126.604 303.054 126.404 302.954 126.004C302.754 125.304 301.554 121.104 301.054 119.304C302.454 118.904 304.054 118.404 305.754 118.004C306.254 119.904 307.154 123.304 307.354 123.904C307.454 124.204 307.554 124.304 307.854 124.204L308.454 124.004C308.754 123.904 308.854 123.704 308.754 123.504C308.654 123.004 307.654 119.504 307.154 117.604L311.954 116.304L313.854 123.004C313.954 123.404 314.154 123.504 314.554 123.404L314.954 123.304C315.254 123.204 315.454 123.104 315.354 122.604L313.254 114.804C313.054 114.004 312.454 114.304 311.954 114.504C311.654 114.604 301.154 117.604 300.154 117.804C299.654 118.004 299.054 118.304 299.254 118.804Z" fill="white"/>
</svg>
